<svg xmlns="http://www.w3.org/2000/svg" viewBox="0 0 140.01 57.2"><defs><style>.cls-1,.cls-2{fill:#fff;}.cls-1{fill-rule:evenodd;}</style></defs><g id="Layer_2" data-name="Layer 2"><g id="_&#xCE;&#xD3;&#xC8;_1" data-name="&#x2014;&#xCE;&#xD3;&#xC8; 1"><path class="cls-1" d="M112.87,36.26A10.47,10.47,0,1,1,102.4,46.73a10.46,10.46,0,0,1,10.47-10.47ZM103.13,17.7l-.7,9.13c2.06-.11,4-.21,5.88-.27a1.45,1.45,0,0,0,1.3-.7,15.57,15.57,0,0,0,1.26-2.64c.17-.5.14-.73-.29-1.32-.58-.79-4.42-2.8-7.45-4.2Zm-2.25,9.21.86-9.84a20.73,20.73,0,0,0-2-.81,27.28,27.28,0,0,0-7.22-1.16l-8-.09a1.33,1.33,0,0,0-1.12.52c-.64,1.67-.79,4-1.63,10.81-.23,1.88-.11,1.37,2,1.35,5.13-.07,11.37-.46,17.19-.78Zm28.2,24.45c2.12-.16,4.53-.36,6.43-.69a7.12,7.12,0,0,0,3.15-1c1.53-1.43,1.36-5.89,1.33-8.17,0-.56-1.41-.56-1.45-1.14-.2-3.52-.45-7.42-.83-11-.47-4.35-9.37-4.51-14.83-6.23C119,21.83,115.8,19.19,110.81,17c-5.49-2.43-10.28-4.66-16-4.66-9.38,0-23.33-1.11-32.06,1.66-8.37,2.66-16,7.46-23.92,11.21a229.83,229.83,0,0,0-30,5.38,7.51,7.51,0,0,0-5.49,4.11,48.27,48.27,0,0,0-2,5.11c-.77.06-.8-.14-1,.31A5.28,5.28,0,0,0,.07,42a18.52,18.52,0,0,0,.34,5.65A4.59,4.59,0,0,0,2,50.43,3.53,3.53,0,0,0,4,51.21l3.56.12c2.13-.39,1.73-.67,1.59-3.37q0-.62,0-1.23a13.61,13.61,0,1,1,27.22,0c0,.76,0,1.51-.06,2.24-.32,4.56-.75,3.78,3.39,4l57.1-.06c3-.42,2.87,0,2.55-3.85-.06-.75-.08-1.52-.08-2.31a13.61,13.61,0,0,1,27.22,0c0,.64,0,1.29-.07,1.92-.25,3.12.63,2.87,2.67,2.71ZM53.46,28.76A10.6,10.6,0,0,0,54,26.39c.11-1.82-3.21-1.95-5.27-1.82a61.06,61.06,0,0,1,15.22-8A47.18,47.18,0,0,1,74.34,15.1L78.85,15c.81,0,.92.37.68,1-.8,2.15-1.12,6.81-1.61,9.93-.23,1.51-.59,1.87-2.13,1.88-6.09.05-22.41,1.22-22.33.93Zm-30.71,7.5A10.47,10.47,0,1,1,12.28,46.73,10.47,10.47,0,0,1,22.75,36.26Z"></path><path class="cls-2" d="M123.33,0a12.11,12.11,0,1,0,12.12,12.11A12.11,12.11,0,0,0,123.33,0Zm7,11.21v2.72a.73.73,0,0,1-.73.72h-3.76v3.76a.72.72,0,0,1-.72.72h-3.63a.72.72,0,0,1-.72-.72V14.65H117a.73.73,0,0,1-.73-.72V10.3a.73.73,0,0,1,.73-.73h3.76V5.81a.72.72,0,0,1,.72-.72h3.63a.72.72,0,0,1,.72.72V9.57h3.76a.73.73,0,0,1,.73.73Z"></path></g></g></svg>